# xmcd
#
# Track frame offsets: 
#        150
#        13464
#        34716
#        49353
#        66933
#        84189
#        97098
#        117594
#        131448
#        142764
#        155268
#
# Disc length: 2238 seconds
#
# Revision: 0
# Processed by: cddbd v1.5.2PL0 Copyright (c) Steve Scherf et al.
# Submitted via: ExactAudioCopy v0.95a3
#
DISCID=9308bc0b
DTITLE=nancy griffith - the last of the true believers
DYEAR=1986
DGENRE=Country
TTITLE0=the last of the true believers
TTITLE1=love at the five and dime
TTITLE2=st. olav's gate
TTITLE3=more than a whisper
TTITLE4=banks of the portchartrain
TTITLE5=lookin' for the time (workin' girl)
TTITLE6=goin' gone
TTITLE7=one of these days
TTITLE8=love's found a shoulder
TTITLE9=fly by night
TTITLE10=the wing and the wheel
EXTD=
EXTT0=
EXTT1=
EXTT2=
EXTT3=
EXTT4=
EXTT5=
EXTT6=
EXTT7=
EXTT8=
EXTT9=
EXTT10=
PLAYORDER=
